<?xml version="1.0" encoding="UTF-8" standalone="no"?>
<!DOCTYPE svg PUBLIC "-//W3C//DTD SVG 1.1//EN" "http://www.w3.org/Graphics/SVG/1.1/DTD/svg11.dtd">
<!--Generated by Intaglio, www.PurgatoryDesign.com-->
<svg version="1.1" viewBox="0,0,559,783" width="559" height="783" xmlns="http://www.w3.org/2000/svg" xmlns:xlink="http://www.w3.org/1999/xlink" xmlns:intaglio="http://purgatorydesign.com/namespaces/intaglio" intaglio:grid="36,36,1,1,0.5,#9999bf,1,0,0,0" intaglio:guides="0.8,#f0f,1,1"><path fill="#0f0" stroke="#000" d="M33.6,234.112 L483.6,234.112 L483.6,426.112 L33.6,426.112 L33.6,234.112 Z"/><text fill="#000100" font-family="Helvetica" font-size="12" transform="matrix(1.87973,0,0,2.83049,32.4722,54.9901)" xml:space="preserve"><tspan font-family="PingFang SC">配置网络</tspan></text><g><path fill="#fffffe" stroke="#000100" d="M87,73 L157,73 L157,115 L87,115 L87,73 Z"/><text fill="#000100" stroke="#000" stroke-width="0.472769" intaglio:stroke-width="1" font-family="Helvetica" font-size="12" transform="matrix(2.1152,0,0,2.1152,99.804,99.599)" xml:space="preserve"><tspan>App</tspan></text></g><g><path fill="#fffffe" stroke="#000100" d="M381.354,72.1418 L451.354,72.1418 L451.354,114.142 L381.354,114.142 L381.354,72.1418 Z"/><text fill="#000100" font-family="Helvetica" font-size="12" transform="matrix(1.99384,0,0,1.99384,392.296,101.839)" xml:space="preserve"><tspan font-family="PingFang SC">音箱</tspan></text></g><path fill="#fffffe" stroke="#000100" d="M115.5,133 L128.5,133 L128.5,373 L115.5,373 L115.5,133 Z"/><path fill="#fffffe" stroke="#000100" d="M407,133 L416.354,133 L416.354,373 L407,373 L407,133 Z"/><text fill="#000100" font-family="Helvetica" font-size="12" transform="matrix(1,0,0,1,148,150)" xml:space="preserve"><tspan>1</tspan><tspan font-family="PingFang SC">、发送手机所在网络的账号密码</tspan></text><g><path fill="none" intaglio:arrow-end="1" stroke="#000" d="M128.5,165 L402.177,166.933" intaglio:d="M128.5,165 L411.677,167"/><path intaglio:omit="yes" d="M401.705,162.929 L411.677,167 L401.649,170.929"/></g><g><path fill="none" intaglio:arrow-end="1" stroke="#000" d="M407,227 L138,227" intaglio:d="M407,227 L128.5,227"/><path intaglio:omit="yes" d="M138.5,231 L128.5,227 L138.5,223"/></g><text fill="#000100" font-family="Helvetica" font-size="12" transform="matrix(1,0,0,1,270.089,206)" xml:space="preserve"><tspan>2.</tspan><tspan font-family="PingFang SC">返回报文（</tspan><tspan>host</tspan><tspan font-family="PingFang SC">、</tspan><tspan>port</tspan><tspan font-family="PingFang SC">）</tspan></text><path fill="none" stroke="#000" d="M122,253 L87,253"/><path fill="none" stroke="#000" d="M87,253 L87,286"/><g><path fill="none" intaglio:arrow-end="1" stroke="#000" d="M87,286 L112.5,286" intaglio:d="M87,286 L122,286"/><path intaglio:omit="yes" d="M112,282 L122,286 L112,290"/></g><text fill="#000100" font-family="Helvetica" font-size="12" transform="matrix(1,0,0,1,33.6,244)" xml:space="preserve"><tspan>3</tspan><tspan font-family="PingFang SC">、解析报文</tspan></text><g><path fill="none" intaglio:arrow-end="1" stroke="#000" d="M128.5,312 L397.5,312.966" intaglio:d="M128.5,312 L407,313"/><path intaglio:omit="yes" d="M397.014,308.964 L407,313 L396.986,316.964"/></g><text fill="#000100" font-family="Helvetica" font-size="12" transform="matrix(1,0,0,1,149.148,301)" xml:space="preserve"><tspan>4</tspan><tspan font-family="PingFang SC">、连接音箱</tspan></text><g><path fill="none" intaglio:arrow-start="1" intaglio:arrow-end="1" stroke="#000" d="M138,340.068 L397.5,341.932" intaglio:d="M128.5,340 L407,342"/><path intaglio:omit="yes" d="M138.471,344.072 L128.5,340 L138.528,336.072"/><path intaglio:omit="yes" d="M397.029,337.928 L407,342 L396.972,345.928"/></g><text fill="#000100" font-family="Helvetica" font-size="12" transform="matrix(1,0,0,1,215.246,340)" xml:space="preserve"><tspan>TCP</tspan><tspan font-family="PingFang SC">通信</tspan></text><path fill="#fff" stroke="#000" d="M42,482 L157,482 L157,547 L42,547 Z"/><path fill="#fff" stroke="#000" d="M42,606 L157,606 L157,669 L42,669 L42,606 Z"/><text fill="#000100" font-family="Helvetica" font-size="12" transform="matrix(1,0,0,1,66.8345,514.5)" xml:space="preserve"><tspan font-family="PingFang SC">配置网络</tspan></text><text fill="#000100" font-family="Helvetica" font-size="12" transform="matrix(1,0,0,1,66.8345,637.5)" xml:space="preserve"><tspan font-family="PingFang SC">广播连接音箱</tspan></text><path fill="#fff" stroke="#000" d="M289,547 L416.354,547 L416.354,615 L289,615 L289,547 Z"/><path fill="none" stroke="#000" d="M157,514.5 L289,581"/><path fill="none" stroke="#000" d="M157,633.162 L289,581"/><text fill="#000100" font-family="Helvetica" font-size="12" transform="matrix(1,0,0,1,321.858,581)" xml:space="preserve"><tspan>TCP</tspan><tspan font-family="PingFang SC">连接</tspan></text></svg>
